<svg xmlns="http://www.w3.org/2000/svg" version="1.1" xmlns:xlink="http://www.w3.org/1999/xlink" xmlns:svgjs="http://svgjs.dev/svgjs" width="128" height="128" viewBox="0 0 128 128"><g transform="matrix(0.8046875,0,0,0.8046875,12.602353556485355,7.086529737903227)"><svg viewBox="0 0 140 155" data-background-color="#ffffff" preserveAspectRatio="xMidYMid meet" height="141" width="128" xmlns="http://www.w3.org/2000/svg" xmlns:xlink="http://www.w3.org/1999/xlink"><g id="tight-bounds" transform="matrix(1,0,0,1,-0.1391213389121333,0.25)"><svg viewBox="0 0 140.27824267782427 154.5" height="154.5" width="140.27824267782427"><g><svg viewBox="0 0 140.27824267782427 154.5" height="154.5" width="140.27824267782427"><g><svg viewBox="0 0 140.27824267782427 154.5" height="154.5" width="140.27824267782427"><g id="textblocktransform"><svg viewBox="0 0 140.27824267782427 154.5" height="154.5" width="140.27824267782427" id="textblock"><g><svg viewBox="0 0 140.27824267782427 154.5" height="154.5" width="140.27824267782427"><g transform="matrix(1,0,0,1,0,0)"><svg width="140.27824267782427" viewBox="3.69 -35.01 31.779999999999998 35.01" height="154.5" data-palette-color="#023f3b"><path d="M32.64-20.7L32.64-14.31 12.57-14.31 12.57-20.7 32.64-20.7ZM35.47-35.01L35.47-28.66 10.03-28.66 10.03 0 3.69 0 3.69-31.81Q3.69-32.47 3.93-33.06 4.17-33.64 4.6-34.08 5.03-34.52 5.62-34.77 6.2-35.01 6.88-35.01L6.88-35.01 35.47-35.01Z" opacity="1" transform="matrix(1,0,0,1,0,0)" fill="#ffffff" class="undefined-text-0" data-fill-palette-color="primary" id="text-0"></path></svg></g></svg></g></svg></g></svg></g><g></g></svg></g><defs></defs></svg><rect width="140.27824267782427" height="154.5" fill="none" stroke="none" visibility="hidden"></rect></g></svg></g></svg>